<svg xmlns="http://www.w3.org/2000/svg" width="64" height="64" viewBox="0 0 64 64" fill="none">
  <path d="M54 18H32.8L27.2 11.2C26.1 9.8 24.4 9 22.6 9H10C6.7 9 4 11.7 4 15V49C4 52.3 6.7 55 10 55H54C57.3 55 60 52.3 60 49V24C60 20.7 57.3 18 54 18Z" fill="#3B82F6"/>
  <path d="M54 22H10C8.3 22 7 23.3 7 25V49C7 50.7 8.3 52 10 52H54C55.7 52 57 50.7 57 49V25C57 23.3 55.7 22 54 22Z" fill="#60A5FA"/>
  <path d="M16 32H48C49.1 32 50 32.9 50 34C50 35.1 49.1 36 48 36H16C14.9 36 14 35.1 14 34C14 32.9 14.9 32 16 32Z" fill="#EFF6FF"/>
  <path d="M16 40H38C39.1 40 40 40.9 40 42C40 43.1 39.1 44 38 44H16C14.9 44 14 43.1 14 42C14 40.9 14.9 40 16 40Z" fill="#EFF6FF"/>
</svg>